{
  "accessors": [
    {
      "bufferView": 2,
      "componentType": 5126,
      "count": 45,
      "max": [
        0.9000000357627869,
        0.12999999523162842,
        2.0999999046325684
      ],
      "min": [
        -0.9000000357627869,
        -0.12999999523162842,
        0.0
      ],
      "type": "VEC3"
    },
    {
      "bufferView": 2,
      "byteOffset": 540,
      "componentType": 5126,
      "count": 45,
      "max": [
        1.0,
        0.0,
        1.0
      ],
      "min": [
        -1.0,
        -1.0,
        -1.0
      ],
      "type": "VEC3"
    },
    {
      "bufferView": 1,
      "componentType": 5126,
      "count": 45,
      "max": [
        0.7200000286102295,
        5.599999904632568
      ],
      "min": [
        -0.10000000149011612,
        -0.12999999523162842
      ],
      "type": "VEC2"
    },
    {
      "bufferView": 0,
      "componentType": 5125,
      "count": 81,
      "type": "SCALAR"
    },
    {
      "bufferView": 2,
      "byteOffset": 1080,
      "componentType": 5126,
      "count": 40,
      "max": [
        0.9000000357627869,
        0.12999999523162842,
        2.0999999046325684
      ],
      "min": [
        -0.9000000357627869,
        0.0,
        0.0
      ],
      "type": "VEC3"
    },
    {
      "bufferView": 2,
      "byteOffset": 1560,
      "componentType": 5126,
      "count": 40,
      "max": [
        1.0,
        1.0,
        1.0
      ],
      "min": [
        -1.0,
        0.0,
        -1.0
      ],
      "type": "VEC3"
    },
    {
      "bufferView": 1,
      "byteOffset": 360,
      "componentType": 5126,
      "count": 40,
      "max": [
        0.3700000047683716,
        5.599999904632568
      ],
      "min": [
        0.12999999523162842,
        0.0
      ],
      "type": "VEC2"
    },
    {
      "bufferView": 0,
      "byteOffset": 324,
      "componentType": 5125,
      "count": 72,
      "type": "SCALAR"
    },
    {
      "bufferView": 2,
      "byteOffset": 2040,
      "componentType": 5126,
      "count": 454,
      "max": [
        0.0,
        -0.014999999664723873,
        2.005000114440918
      ],
      "min": [
        -0.8050000071525574,
        -0.02499999850988388,
        0.0
      ],
      "type": "VEC3"
    },
    {
      "bufferView": 2,
      "byteOffset": 7488,
      "componentType": 5126,
      "count": 454,
      "max": [
        0.707111656665802,
        -0.7071018815040588,
        0.7071071863174438
      ],
      "min": [
        -0.7071086764335632,
        -1.0,
        -0.7071071863174438
      ],
      "type": "VEC3"
    },
    {
      "bufferView": 1,
      "byteOffset": 680,
      "componentType": 5126,
      "count": 454,
      "max": [
        0.1612500101327896,
        10.4350004196167
      ],
      "min": [
        -0.1612500101327896,
        0.0
      ],
      "type": "VEC2"
    },
    {
      "bufferView": 0,
      "byteOffset": 612,
      "componentType": 5125,
      "count": 816,
      "type": "SCALAR"
    },
    {
      "bufferView": 2,
      "byteOffset": 12936,
      "componentType": 5126,
      "count": 482,
      "max": [
        0.0,
        0.004999999888241291,
        2.005000114440918
      ],
      "min": [
        -0.8050000071525574,
        -0.019999999552965164,
        0.0
      ],
      "type": "VEC3"
    },
    {
      "bufferView": 2,
      "byteOffset": 18720,
      "componentType": 5126,
      "count": 482,
      "max": [
        1.0,
        1.0,
        1.0
      ],
      "min": [
        -1.0,
        0.0,
        -1.0
      ],
      "type": "VEC3"
    },
    {
      "bufferView": 1,
      "byteOffset": 4312,
      "componentType": 5126,
      "count": 482,
      "max": [
        0.17999999225139618,
        10.4350004196167
      ],
      "min": [
        -0.1612500101327896,
        0.0
      ],
      "type": "VEC2"
    },
    {
      "bufferView": 0,
      "byteOffset": 3876,
      "componentType": 5125,
      "count": 876,
      "type": "SCALAR"
    },
    {
      "bufferView": 2,
      "byteOffset": 24504,
      "componentType": 5126,
      "count": 454,
      "max": [
        0.8050000071525574,
        -0.014999999664723873,
        2.005000114440918
      ],
      "min": [
        0.0,
        -0.02499999850988388,
        0.0
      ],
      "type": "VEC3"
    },
    {
      "bufferView": 2,
      "byteOffset": 29952,
      "componentType": 5126,
      "count": 454,
      "max": [
        0.7071086764335632,
        -0.7071018815040588,
        0.7071071863174438
      ],
      "min": [
        -0.707111656665802,
        -1.0,
        -0.7071071863174438
      ],
      "type": "VEC3"
    },
    {
      "bufferView": 1,
      "byteOffset": 8168,
      "componentType": 5126,
      "count": 454,
      "max": [
        0.1612500101327896,
        10.4350004196167
      ],
      "min": [
        -0.1612500101327896,
        0.0
      ],
      "type": "VEC2"
    },
    {
      "bufferView": 0,
      "byteOffset": 7380,
      "componentType": 5125,
      "count": 816,
      "type": "SCALAR"
    },
    {
      "bufferView": 2,
      "byteOffset": 35400,
      "componentType": 5126,
      "count": 482,
      "max": [
        0.8050000071525574,
        0.004999999888241291,
        2.005000114440918
      ],
      "min": [
        0.0,
        -0.019999999552965164,
        0.0
      ],
      "type": "VEC3"
    },
    {
      "bufferView": 2,
      "byteOffset": 41184,
      "componentType": 5126,
      "count": 482,
      "max": [
        1.0,
        1.0,
        1.0
      ],
      "min": [
        -1.0,
        0.0,
        -1.0
      ],
      "type": "VEC3"
    },
    {
      "bufferView": 1,
      "byteOffset": 11800,
      "componentType": 5126,
      "count": 482,
      "max": [
        0.17999999225139618,
        10.4350004196167
      ],
      "min": [
        -0.1612500101327896,
        0.0
      ],
      "type": "VEC2"
    },
    {
      "bufferView": 0,
      "byteOffset": 10644,
      "componentType": 5125,
      "count": 876,
      "type": "SCALAR"
    },
    {
      "bufferView": 2,
      "byteOffset": 46968,
      "componentType": 5126,
      "count": 28834,
      "max": [
        0.01883593760430813,
        0.047712892293930054,
        0.043589845299720764
      ],
      "min": [
        -0.11897246539592743,
        -0.06771288067102432,
        -0.10634375363588333
      ],
      "type": "VEC3"
    },
    {
      "bufferView": 2,
      "byteOffset": 392976,
      "componentType": 5126,
      "count": 28834,
      "max": [
        1.0,
        1.0,
        1.0
      ],
      "min": [
        -1.0,
        -1.0,
        -1.0
      ],
      "type": "VEC3"
    },
    {
      "bufferView": 0,
      "byteOffset": 14148,
      "componentType": 5125,
      "count": 172032,
      "type": "SCALAR"
    }
  ],
  "asset": {
    "extras": {
      "author": "indoeditor7 (https://sketchfab.com/indoeditor7)",
      "license": "CC-BY-4.0 (http://creativecommons.org/licenses/by/4.0/)",
      "source": "https://sketchfab.com/3d-models/simple-double-door-2837dcca0e7b4bcd8d8944895671f0a2",
      "title": "Simple Double Door"
    },
    "generator": "Sketchfab-12.67.0",
    "version": "2.0"
  },
  "bufferViews": [
    {
      "buffer": 0,
      "byteLength": 702276,
      "name": "floatBufferViews",
      "target": 34963
    },
    {
      "buffer": 0,
      "byteLength": 15656,
      "byteOffset": 702276,
      "byteStride": 8,
      "name": "floatBufferViews",
      "target": 34962
    },
    {
      "buffer": 0,
      "byteLength": 738984,
      "byteOffset": 717932,
      "byteStride": 12,
      "name": "floatBufferViews",
      "target": 34962
    }
  ],
  "buffers": [
    {
      "byteLength": 1456916,
      "uri": "scene.bin"
    }
  ],
  "materials": [
    {
      "doubleSided": true,
      "name": "Door_inside",
      "pbrMetallicRoughness": {
        "baseColorFactor": [
          0.8,
          0.8,
          0.8,
          1.0
        ],
        "metallicFactor": 0.0,
        "roughnessFactor": 0.8239417257461427
      }
    },
    {
      "doubleSided": true,
      "name": "Door_outside",
      "pbrMetallicRoughness": {
        "baseColorFactor": [
          0.8,
          0.8,
          0.8,
          1.0
        ],
        "metallicFactor": 0.0,
        "roughnessFactor": 0.8239417257461427
      }
    },
    {
      "doubleSided": true,
      "name": "Handle_inside",
      "pbrMetallicRoughness": {
        "baseColorFactor": [
          0.8,
          0.8,
          0.8,
          1.0
        ],
        "metallicFactor": 0.0,
        "roughnessFactor": 0.8239417257461427
      }
    }
  ],
  "meshes": [
    {
      "name": "Door_Door_inside_0",
      "primitives": [
        {
          "attributes": {
            "NORMAL": 1,
            "POSITION": 0,
            "TEXCOORD_0": 2
          },
          "indices": 3,
          "material": 0,
          "mode": 4
        }
      ]
    },
    {
      "name": "Door_Door_outside_0",
      "primitives": [
        {
          "attributes": {
            "NORMAL": 5,
            "POSITION": 4,
            "TEXCOORD_0": 6
          },
          "indices": 7,
          "material": 1,
          "mode": 4
        }
      ]
    },
    {
      "name": "Panel.001_Door_inside_0",
      "primitives": [
        {
          "attributes": {
            "NORMAL": 9,
            "POSITION": 8,
            "TEXCOORD_0": 10
          },
          "indices": 11,
          "material": 0,
          "mode": 4
        }
      ]
    },
    {
      "name": "Panel.001_Door_outside_0",
      "primitives": [
        {
          "attributes": {
            "NORMAL": 13,
            "POSITION": 12,
            "TEXCOORD_0": 14
          },
          "indices": 15,
          "material": 1,
          "mode": 4
        }
      ]
    },
    {
      "name": "Panel_Door_inside_0",
      "primitives": [
        {
          "attributes": {
            "NORMAL": 17,
            "POSITION": 16,
            "TEXCOORD_0": 18
          },
          "indices": 19,
          "material": 0,
          "mode": 4
        }
      ]
    },
    {
      "name": "Panel_Door_outside_0",
      "primitives": [
        {
          "attributes": {
            "NORMAL": 21,
            "POSITION": 20,
            "TEXCOORD_0": 22
          },
          "indices": 23,
          "material": 1,
          "mode": 4
        }
      ]
    },
    {
      "name": "Handle_Handle_inside_0",
      "primitives": [
        {
          "attributes": {
            "NORMAL": 25,
            "POSITION": 24
          },
          "indices": 26,
          "material": 2,
          "mode": 4
        }
      ]
    }
  ],
  "nodes": [
    {
      "children": [
        1
      ],
      "matrix": [
        1.0,
        0.0,
        0.0,
        0.0,
        0.0,
        2.220446049250313e-16,
        -1.0,
        0.0,
        0.0,
        1.0,
        2.220446049250313e-16,
        0.0,
        0.0,
        0.0,
        0.0,
        1.0
      ],
      "name": "Sketchfab_model"
    },
    {
      "children": [
        2
      ],
      "matrix": [
        1.0,
        0.0,
        0.0,
        0.0,
        0.0,
        0.0,
        1.0,
        0.0,
        0.0,
        -1.0,
        0.0,
        0.0,
        0.0,
        0.0,
        0.0,
        1.0
      ],
      "name": "3b7f747ccc8d430584567e9cccbad84e.fbx"
    },
    {
      "children": [
        3
      ],
      "name": "RootNode"
    },
    {
      "children": [
        4,
        5,
        6,
        9
      ],
      "matrix": [
        100.0,
        0.0,
        0.0,
        0.0,
        0.0,
        -1.629206793918314e-05,
        -99.99999999999868,
        0.0,
        0.0,
        99.99999999999868,
        -1.629206793918314e-05,
        0.0,
        0.0,
        0.0,
        0.0,
        1.0
      ],
      "name": "Door"
    },
    {
      "mesh": 0,
      "name": "Door_Door_inside_0"
    },
    {
      "mesh": 1,
      "name": "Door_Door_outside_0"
    },
    {
      "children": [
        7,
        8
      ],
      "matrix": [
        0.9528966528744317,
        -0.3032951844996962,
        0.0,
        0.0,
        0.3032951844996962,
        0.9528966528744317,
        0.0,
        0.0,
        0.0,
        0.0,
        1.0,
        0.0,
        0.8050000071525574,
        0.14000000059604645,
        -3.308722450212111e-24,
        1.0
      ],
      "name": "Panel.001"
    },
    {
      "mesh": 2,
      "name": "Panel.001_Door_inside_0"
    },
    {
      "mesh": 3,
      "name": "Panel.001_Door_outside_0"
    },
    {
      "children": [
        10,
        11,
        12
      ],
      "matrix": [
        0.7604917084682942,
        0.6493476429086158,
        -1.3234889800848446e-23,
        0.0,
        -0.6493476429086158,
        0.7604917084682942,
        0.0,
        0.0,
        1.0065023956036837e-23,
        8.594044496336216e-24,
        1.0,
        0.0,
        -0.8050000071525574,
        0.14000000059604645,
        -3.308722450212111e-24,
        1.0
      ],
      "name": "Panel"
    },
    {
      "mesh": 4,
      "name": "Panel_Door_inside_0"
    },
    {
      "mesh": 5,
      "name": "Panel_Door_outside_0"
    },
    {
      "children": [
        13
      ],
      "matrix": [
        1.0,
        1.1102230246251565e-16,
        1.3234889800848443e-23,
        0.0,
        -1.1102230246251565e-16,
        1.0,
        2.646977960169688e-23,
        0.0,
        -1.323488980084844e-23,
        -2.646977960169688e-23,
        1.0,
        0.0,
        0.7350000143051147,
        -5.960464477539063e-08,
        1.002500057220459,
        1.0
      ],
      "name": "Handle"
    },
    {
      "mesh": 6,
      "name": "Handle_Handle_inside_0"
    }
  ],
  "scene": 0,
  "scenes": [
    {
      "name": "Sketchfab_Scene",
      "nodes": [
        0
      ]
    }
  ]
}
