{
  "accessors": [
    {
      "bufferView": 2,
      "componentType": 5126,
      "count": 276,
      "max": [
        122.05835723876953,
        245.01071166992188,
        4.79691219329834
      ],
      "min": [
        -122.05835723876953,
        0.0,
        -4.79691219329834
      ],
      "type": "VEC3"
    },
    {
      "bufferView": 2,
      "byteOffset": 3312,
      "componentType": 5126,
      "count": 276,
      "max": [
        1.0,
        1.0,
        1.0
      ],
      "min": [
        -1.0,
        -1.0,
        -1.0
      ],
      "type": "VEC3"
    },
    {
      "bufferView": 3,
      "componentType": 5126,
      "count": 276,
      "max": [
        1.0,
        0.07441313564777374,
        1.0,
        1.0
      ],
      "min": [
        -1.0,
        -0.07440666854381561,
        -1.0,
        1.0
      ],
      "type": "VEC4"
    },
    {
      "bufferView": 1,
      "componentType": 5126,
      "count": 276,
      "max": [
        0.9733392596244812,
        0.9924513697624207
      ],
      "min": [
        0.052113402634859085,
        0.03604710102081299
      ],
      "type": "VEC2"
    },
    {
      "bufferView": 0,
      "componentType": 5125,
      "count": 492,
      "type": "SCALAR"
    },
    {
      "bufferView": 2,
      "byteOffset": 6624,
      "componentType": 5126,
      "count": 1551,
      "max": [
        100.6456298828125,
        229.0,
        54.273292541503906
      ],
      "min": [
        -0.9185839295387268,
        -5.981337647398277e-11,
        -2.1378889083862305
      ],
      "type": "VEC3"
    },
    {
      "bufferView": 2,
      "byteOffset": 25236,
      "componentType": 5126,
      "count": 1551,
      "max": [
        0.9999876618385315,
        1.0,
        0.990710437297821
      ],
      "min": [
        -0.999987781047821,
        -1.0,
        -0.990709662437439
      ],
      "type": "VEC3"
    },
    {
      "bufferView": 3,
      "byteOffset": 4416,
      "componentType": 5126,
      "count": 1551,
      "max": [
        0.9994394183158875,
        1.0,
        0.999987781047821,
        1.0
      ],
      "min": [
        -0.9994395971298218,
        -0.9509970545768738,
        -0.9999877214431763,
        1.0
      ],
      "type": "VEC4"
    },
    {
      "bufferView": 1,
      "byteOffset": 2208,
      "componentType": 5126,
      "count": 1551,
      "max": [
        0.9873130917549133,
        0.9994457364082336
      ],
      "min": [
        0.003154805861413479,
        0.0005543231964111328
      ],
      "type": "VEC2"
    },
    {
      "bufferView": 0,
      "byteOffset": 1968,
      "componentType": 5125,
      "count": 4770,
      "type": "SCALAR"
    },
    {
      "bufferView": 2,
      "byteOffset": 43848,
      "componentType": 5126,
      "count": 1551,
      "max": [
        1.7931444644927979,
        229.0,
        87.96717071533203
      ],
      "min": [
        -72.60880279541016,
        -5.6516402668904675e-11,
        -1.3992314338684082
      ],
      "type": "VEC3"
    },
    {
      "bufferView": 2,
      "byteOffset": 62460,
      "componentType": 5126,
      "count": 1551,
      "max": [
        0.9975635409355164,
        1.0,
        0.9893826842308044
      ],
      "min": [
        -0.9991055130958557,
        -1.0,
        -0.9893837571144104
      ],
      "type": "VEC3"
    },
    {
      "bufferView": 3,
      "byteOffset": 29232,
      "componentType": 5126,
      "count": 1551,
      "max": [
        0.9990484118461609,
        1.0,
        0.9991055130958557,
        1.0
      ],
      "min": [
        -0.9948968291282654,
        -0.9506758451461792,
        -0.999344527721405,
        1.0
      ],
      "type": "VEC4"
    },
    {
      "bufferView": 1,
      "byteOffset": 14616,
      "componentType": 5126,
      "count": 1551,
      "max": [
        0.961711049079895,
        0.99930340051651
      ],
      "min": [
        0.0005542679573409259,
        0.00264585018157959
      ],
      "type": "VEC2"
    },
    {
      "bufferView": 0,
      "byteOffset": 21048,
      "componentType": 5125,
      "count": 4770,
      "type": "SCALAR"
    },
    {
      "bufferView": 2,
      "byteOffset": 81072,
      "componentType": 5126,
      "count": 276,
      "max": [
        122.05835723876953,
        245.01071166992188,
        4.79691219329834
      ],
      "min": [
        -122.05835723876953,
        0.0,
        -4.79691219329834
      ],
      "type": "VEC3"
    },
    {
      "bufferView": 2,
      "byteOffset": 84384,
      "componentType": 5126,
      "count": 276,
      "max": [
        1.0,
        1.0,
        1.0
      ],
      "min": [
        -1.0,
        -1.0,
        -1.0
      ],
      "type": "VEC3"
    },
    {
      "bufferView": 3,
      "byteOffset": 54048,
      "componentType": 5126,
      "count": 276,
      "max": [
        1.0,
        0.07441313564777374,
        1.0,
        1.0
      ],
      "min": [
        -1.0,
        -0.07440666854381561,
        -1.0,
        1.0
      ],
      "type": "VEC4"
    },
    {
      "bufferView": 1,
      "byteOffset": 27024,
      "componentType": 5126,
      "count": 276,
      "max": [
        0.9733392596244812,
        0.9924513697624207
      ],
      "min": [
        0.052113402634859085,
        0.03604710102081299
      ],
      "type": "VEC2"
    },
    {
      "bufferView": 0,
      "byteOffset": 40128,
      "componentType": 5125,
      "count": 492,
      "type": "SCALAR"
    },
    {
      "bufferView": 2,
      "byteOffset": 87696,
      "componentType": 5126,
      "count": 1551,
      "max": [
        100.64582824707031,
        229.0,
        54.27434539794922
      ],
      "min": [
        -0.9183852672576904,
        -5.3290705182007514e-15,
        -2.1368370056152344
      ],
      "type": "VEC3"
    },
    {
      "bufferView": 2,
      "byteOffset": 106308,
      "componentType": 5126,
      "count": 1551,
      "max": [
        0.9999876022338867,
        1.0,
        0.9907097220420837
      ],
      "min": [
        -0.999987781047821,
        -1.0,
        -0.990709662437439
      ],
      "type": "VEC3"
    },
    {
      "bufferView": 3,
      "byteOffset": 58464,
      "componentType": 5126,
      "count": 1551,
      "max": [
        0.999439537525177,
        1.0,
        0.9999878406524658,
        1.0
      ],
      "min": [
        -0.9994398951530457,
        -0.9509971737861633,
        -0.9999876618385315,
        1.0
      ],
      "type": "VEC4"
    },
    {
      "bufferView": 1,
      "byteOffset": 29232,
      "componentType": 5126,
      "count": 1551,
      "max": [
        0.9873130917549133,
        0.9994457364082336
      ],
      "min": [
        0.003154805861413479,
        0.0005543231964111328
      ],
      "type": "VEC2"
    },
    {
      "bufferView": 0,
      "byteOffset": 42096,
      "componentType": 5125,
      "count": 4770,
      "type": "SCALAR"
    },
    {
      "bufferView": 2,
      "byteOffset": 124920,
      "componentType": 5126,
      "count": 1551,
      "max": [
        1.8152085542678833,
        229.0,
        87.9853286743164
      ],
      "min": [
        -72.58673858642578,
        -5.3290705182007514e-15,
        -1.3810713291168213
      ],
      "type": "VEC3"
    },
    {
      "bufferView": 2,
      "byteOffset": 143532,
      "componentType": 5126,
      "count": 1551,
      "max": [
        0.9975634217262268,
        1.0,
        0.9893865585327148
      ],
      "min": [
        -0.9991057515144348,
        -1.0,
        -0.9893843531608582
      ],
      "type": "VEC3"
    },
    {
      "bufferView": 3,
      "byteOffset": 83280,
      "componentType": 5126,
      "count": 1551,
      "max": [
        0.9990494847297668,
        1.0,
        0.9991058111190796,
        1.0
      ],
      "min": [
        -0.9948963522911072,
        -0.9506772756576538,
        -0.9993444681167603,
        1.0
      ],
      "type": "VEC4"
    },
    {
      "bufferView": 1,
      "byteOffset": 41640,
      "componentType": 5126,
      "count": 1551,
      "max": [
        0.961711049079895,
        0.99930340051651
      ],
      "min": [
        0.0005542679573409259,
        0.00264585018157959
      ],
      "type": "VEC2"
    },
    {
      "bufferView": 0,
      "byteOffset": 61176,
      "componentType": 5125,
      "count": 4770,
      "type": "SCALAR"
    }
  ],
  "asset": {
    "extras": {
      "author": "adventurer (https://sketchfab.com/ahmagh2e)",
      "license": "CC-BY-4.0 (http://creativecommons.org/licenses/by/4.0/)",
      "source": "https://sketchfab.com/3d-models/door-metal-door-window-7mb-362754895ebe411bb027966bcf9a86a1",
      "title": "Door Metal door window - 7MB"
    },
    "generator": "Sketchfab-16.12.0",
    "version": "2.0"
  },
  "bufferViews": [
    {
      "buffer": 0,
      "byteLength": 80256,
      "name": "floatBufferViews",
      "target": 34963
    },
    {
      "buffer": 0,
      "byteLength": 54048,
      "byteOffset": 80256,
      "byteStride": 8,
      "name": "floatBufferViews",
      "target": 34962
    },
    {
      "buffer": 0,
      "byteLength": 162144,
      "byteOffset": 134304,
      "byteStride": 12,
      "name": "floatBufferViews",
      "target": 34962
    },
    {
      "buffer": 0,
      "byteLength": 108096,
      "byteOffset": 296448,
      "byteStride": 16,
      "name": "floatBufferViews",
      "target": 34962
    }
  ],
  "buffers": [
    {
      "byteLength": 404544,
      "uri": "scene.bin"
    }
  ],
  "images": [
    {
      "uri": "textures/Scene_-_Root_baseColor.png"
    },
    {
      "uri": "textures/Scene_-_Root_metallicRoughness.png"
    },
    {
      "uri": "textures/Scene_-_Root_normal.png"
    }
  ],
  "materials": [
    {
      "doubleSided": true,
      "name": "Scene_-_Root",
      "normalTexture": {
        "index": 2
      },
      "pbrMetallicRoughness": {
        "baseColorTexture": {
          "index": 0
        },
        "metallicRoughnessTexture": {
          "index": 1
        }
      }
    }
  ],
  "meshes": [
    {
      "name": "frame__0",
      "primitives": [
        {
          "attributes": {
            "NORMAL": 1,
            "POSITION": 0,
            "TANGENT": 2,
            "TEXCOORD_0": 3
          },
          "indices": 4,
          "material": 0,
          "mode": 4
        }
      ]
    },
    {
      "name": "L__0",
      "primitives": [
        {
          "attributes": {
            "NORMAL": 6,
            "POSITION": 5,
            "TANGENT": 7,
            "TEXCOORD_0": 8
          },
          "indices": 9,
          "material": 0,
          "mode": 4
        }
      ]
    },
    {
      "name": "R__0",
      "primitives": [
        {
          "attributes": {
            "NORMAL": 11,
            "POSITION": 10,
            "TANGENT": 12,
            "TEXCOORD_0": 13
          },
          "indices": 14,
          "material": 0,
          "mode": 4
        }
      ]
    },
    {
      "name": "frame_2__0",
      "primitives": [
        {
          "attributes": {
            "NORMAL": 16,
            "POSITION": 15,
            "TANGENT": 17,
            "TEXCOORD_0": 18
          },
          "indices": 19,
          "material": 0,
          "mode": 4
        }
      ]
    },
    {
      "name": "L_2__0",
      "primitives": [
        {
          "attributes": {
            "NORMAL": 21,
            "POSITION": 20,
            "TANGENT": 22,
            "TEXCOORD_0": 23
          },
          "indices": 24,
          "material": 0,
          "mode": 4
        }
      ]
    },
    {
      "name": "R_2__0",
      "primitives": [
        {
          "attributes": {
            "NORMAL": 26,
            "POSITION": 25,
            "TANGENT": 27,
            "TEXCOORD_0": 28
          },
          "indices": 29,
          "material": 0,
          "mode": 4
        }
      ]
    }
  ],
  "nodes": [
    {
      "children": [
        1
      ],
      "matrix": [
        1.0,
        0.0,
        0.0,
        0.0,
        0.0,
        2.220446049250313e-16,
        -1.0,
        0.0,
        0.0,
        1.0,
        2.220446049250313e-16,
        0.0,
        0.0,
        0.0,
        0.0,
        1.0
      ],
      "name": "Sketchfab_model"
    },
    {
      "children": [
        2
      ],
      "matrix": [
        0.009999999776482582,
        0.0,
        0.0,
        0.0,
        0.0,
        0.0,
        0.009999999776482582,
        0.0,
        0.0,
        -0.009999999776482582,
        0.0,
        0.0,
        0.0,
        0.0,
        0.0,
        1.0
      ],
      "name": "b497ea9de65748f2975b672baaf8991a.fbx"
    },
    {
      "children": [
        3,
        10
      ],
      "name": "RootNode"
    },
    {
      "children": [
        4,
        6,
        8
      ],
      "matrix": [
        1.0,
        0.0,
        0.0,
        0.0,
        0.0,
        1.0,
        0.0,
        0.0,
        0.0,
        0.0,
        1.0,
        0.0,
        -30.07668113708496,
        3.6906545162200928,
        0.0,
        1.0
      ],
      "name": "OLD_DOOR"
    },
    {
      "children": [
        5
      ],
      "matrix": [
        1.0,
        0.0,
        0.0,
        0.0,
        0.0,
        1.0,
        0.0,
        0.0,
        0.0,
        0.0,
        1.0,
        0.0,
        30.07668113708496,
        -3.6906545162200928,
        0.0,
        1.0
      ],
      "name": "frame"
    },
    {
      "mesh": 0,
      "name": "frame__0"
    },
    {
      "children": [
        7
      ],
      "matrix": [
        0.9063077870366499,
        0.0,
        -0.42261826174069944,
        0.0,
        0.0,
        1.0,
        0.0,
        0.0,
        0.42261826174069944,
        0.0,
        0.9063077870366499,
        0.0,
        -80.33331298828125,
        0.3595263361930847,
        0.0011268401285633445,
        1.0
      ],
      "name": "L"
    },
    {
      "mesh": 1,
      "name": "L__0"
    },
    {
      "children": [
        9
      ],
      "matrix": [
        0.6273849109117176,
        0.0,
        0.778709299777713,
        0.0,
        0.0,
        1.0,
        0.0,
        0.0,
        -0.778709299777713,
        0.0,
        0.6273849109117176,
        0.0,
        140.3063507080078,
        0.46624329686164856,
        0.0004590387106873095,
        1.0
      ],
      "name": "R"
    },
    {
      "mesh": 2,
      "name": "R__0"
    },
    {
      "children": [
        11,
        13,
        15
      ],
      "matrix": [
        1.0,
        0.0,
        0.0,
        0.0,
        0.0,
        1.0,
        0.0,
        0.0,
        0.0,
        0.0,
        1.0,
        0.0,
        341.9075012207031,
        3.6906545162200928,
        0.0,
        1.0
      ],
      "name": "OLD_DOOR_1"
    },
    {
      "children": [
        12
      ],
      "matrix": [
        1.0,
        0.0,
        0.0,
        0.0,
        0.0,
        1.0,
        0.0,
        0.0,
        0.0,
        0.0,
        1.0,
        0.0,
        0.0,
        -3.6906545162200928,
        0.0,
        1.0
      ],
      "name": "frame_2"
    },
    {
      "mesh": 3,
      "name": "frame_2__0"
    },
    {
      "children": [
        14
      ],
      "matrix": [
        1.0,
        0.0,
        0.0,
        0.0,
        0.0,
        1.0,
        0.0,
        0.0,
        0.0,
        0.0,
        1.0,
        0.0,
        -110.19316101074219,
        0.5736327767372131,
        -5.9314512327546254e-05,
        1.0
      ],
      "name": "L_2"
    },
    {
      "mesh": 4,
      "name": "L_2__0"
    },
    {
      "children": [
        16
      ],
      "matrix": [
        1.0,
        0.0,
        0.0,
        0.0,
        0.0,
        1.0,
        0.0,
        0.0,
        0.0,
        0.0,
        1.0,
        0.0,
        110.498291015625,
        0.5736327767372131,
        0.0003749634197447449,
        1.0
      ],
      "name": "R_2"
    },
    {
      "mesh": 5,
      "name": "R_2__0"
    }
  ],
  "samplers": [
    {
      "magFilter": 9729,
      "minFilter": 9987,
      "wrapS": 10497,
      "wrapT": 10497
    }
  ],
  "scene": 0,
  "scenes": [
    {
      "name": "Sketchfab_Scene",
      "nodes": [
        0
      ]
    }
  ],
  "textures": [
    {
      "sampler": 0,
      "source": 0
    },
    {
      "sampler": 0,
      "source": 1
    },
    {
      "sampler": 0,
      "source": 2
    }
  ]
}
